<svg width="36" height="36" viewBox="0 0 36 36" fill="none" xmlns="http://www.w3.org/2000/svg">
<path d="M17.9902 0C6.42927 0.072 0 6.58964 0 17.9705C0 29.3515 6.43582 35.9329 18.0098 36C29.7295 35.9313 35.7824 29.8849 36 17.9722C35.8004 6.45709 29.412 0.0736364 17.9902 0ZM22.6227 19.6364H19.638V22.6227C19.638 23.526 18.9065 24.2591 18.0016 24.2591C17.0967 24.2591 16.3653 23.526 16.3653 22.6227V19.6364H13.3805C12.4756 19.6364 11.7442 18.9033 11.7442 18C11.7442 17.0967 12.4756 16.3636 13.3805 16.3636H16.3653V13.3773C16.3653 12.474 17.0967 11.7409 18.0016 11.7409C18.9065 11.7409 19.638 12.474 19.638 13.3773V16.3636H22.6227C23.5276 16.3636 24.2591 17.0967 24.2591 18C24.2591 18.9033 23.5276 19.6364 22.6227 19.6364Z" fill="#81CA00"/>
</svg>
